<svg width="509" height="115" viewBox="0 0 509 115" fill="none" xmlns="http://www.w3.org/2000/svg">
<rect width="509" height="115" fill="#E5E5E5"/>
<rect width="800" height="300" transform="translate(-145 -92)" fill="white"/>
<path d="M62.0788 25.5813C62.0788 15.8864 54.1923 8 44.4975 8C34.2803 8 28.1721 15.6604 28.1721 23.0696H38.2185C38.2185 20.985 40.1675 18.0464 44.4975 18.0464C48.6517 18.0464 52.0323 21.4271 52.0323 25.5813C52.0323 29.7355 49 33.1161 41.3533 33.1161H14V43.1625H41.3533C54.259 43.1625 62.0788 35.2761 62.0788 25.5813ZM62.0788 25.5813C62.0788 15.8864 54.1923 8 44.4975 8C34.2803 8 28.1721 15.6604 28.1721 23.0696H38.2185C38.2185 20.985 40.1675 18.0464 44.4975 18.0464C48.6517 18.0464 52.0323 21.4271 52.0323 25.5813C52.0323 29.7355 49 33.1161 41.3533 33.1161H14V43.1625H41.3533C54.259 43.1625 62.0788 35.2761 62.0788 25.5813Z" fill="url(#paint0_linear)"/>
<path d="M84.3667 90.4187C84.3667 100.114 76.4802 108 66.7854 108C56.5682 108 50.4599 100.34 50.4599 92.9304H60.5064C60.5064 95.015 62.4554 97.9536 66.7854 97.9536C70.9396 97.9536 74.3202 94.5729 74.3202 90.4187C74.3202 86.2645 70.5 82.8839 63.6412 82.8839L33.2879 82.8839L33.2879 72.8375L63.6412 72.8375C76.5469 72.8375 84.3667 80.7239 84.3667 90.4187ZM84.3667 90.4187C84.3667 100.114 76.4802 108 66.7854 108C56.5682 108 50.4599 100.34 50.4599 92.9304H60.5064C60.5064 95.015 62.4554 97.9536 66.7854 97.9536C70.9396 97.9536 74.3202 94.5729 74.3202 90.4187C74.3202 86.2645 70.5 82.8839 63.6412 82.8839L33.2879 82.8839L33.2879 72.8375L63.6412 72.8375C76.5469 72.8375 84.3667 80.7239 84.3667 90.4187Z" fill="url(#paint1_linear)"/>
<path d="M87 23.5C75.9188 23.5 68.102 31.9269 68.102 43.0081H77C77 37.5 81 33.5 87 33.5C93 33.5 96 37.5 96 43.0081C96 48.5162 92.1036 53.0545 81.5 53.0545H14V63.101H83C98.7028 63.101 106 53.0081 106 43.0081C106 31.9269 98.5 23.5 87 23.5Z" fill="url(#paint2_linear)"/>
<path d="M27.1701 72.8375H14V82.9683H27.1701V72.8375Z" fill="url(#paint3_linear)"/>
<path d="M195.6 87H187.9L174.6 51H174.4L162.6 87H154.6L139.4 40.2H148L158.7 76.2H158.9L171 40.2H179.2L191.5 76.2H191.7L202.3 40.2H210.7L195.6 87ZM218.221 40.2H226.021V87H218.221V40.2ZM216.421 21.9C216.421 20.3667 216.954 19.0333 218.021 17.9C219.154 16.7667 220.521 16.2 222.121 16.2C223.721 16.2 225.054 16.7667 226.121 17.9C227.254 19.0333 227.821 20.3667 227.821 21.9C227.821 23.5667 227.288 24.9333 226.221 26C225.154 27.0667 223.788 27.6 222.121 27.6C220.454 27.6 219.088 27.0667 218.021 26C216.954 24.9333 216.421 23.5667 216.421 21.9ZM239.545 51.3C239.545 49.1667 239.478 47.1667 239.345 45.3C239.211 43.4333 239.145 41.7333 239.145 40.2H246.545C246.545 41.4667 246.578 42.7333 246.645 44C246.711 45.2667 246.745 46.5667 246.745 47.9H246.945C247.478 46.7667 248.211 45.6667 249.145 44.6C250.145 43.5333 251.311 42.6 252.645 41.8C253.978 40.9333 255.478 40.2667 257.145 39.8C258.811 39.2667 260.611 39 262.545 39C265.611 39 268.245 39.4667 270.445 40.4C272.711 41.3333 274.578 42.6333 276.045 44.3C277.511 45.9667 278.578 48 279.245 50.4C279.978 52.7333 280.345 55.3 280.345 58.1V87H272.545V58.9C272.545 54.9667 271.678 51.8667 269.945 49.6C268.211 47.3333 265.511 46.2 261.845 46.2C259.311 46.2 257.111 46.6333 255.245 47.5C253.445 48.3667 251.945 49.6 250.745 51.2C249.611 52.8 248.745 54.7 248.145 56.9C247.611 59.1 247.345 61.5333 247.345 64.2V87H239.545V51.3ZM332.011 78.7H331.811C330.344 81.3667 328.011 83.6333 324.811 85.5C321.678 87.3 318.011 88.2 313.811 88.2C310.544 88.2 307.478 87.6 304.611 86.4C301.744 85.1333 299.244 83.4 297.111 81.2C295.044 79 293.411 76.4 292.211 73.4C291.011 70.4 290.411 67.1333 290.411 63.6C290.411 60.0667 291.011 56.8 292.211 53.8C293.411 50.8 295.078 48.2 297.211 46C299.344 43.8 301.911 42.1 304.911 40.9C307.978 39.6333 311.344 39 315.011 39C318.411 39 321.511 39.7 324.311 41.1C327.178 42.5 329.678 44.4667 331.811 47H332.011V11.4H339.811V87H332.011V78.7ZM332.011 63.6C332.011 61.1333 331.611 58.8667 330.811 56.8C330.078 54.6667 328.978 52.8333 327.511 51.3C326.044 49.7 324.278 48.4667 322.211 47.6C320.211 46.6667 317.944 46.2 315.411 46.2C312.878 46.2 310.578 46.6667 308.511 47.6C306.511 48.4667 304.778 49.7 303.311 51.3C301.844 52.8333 300.711 54.6667 299.911 56.8C299.178 58.8667 298.811 61.1333 298.811 63.6C298.811 66.0667 299.178 68.3667 299.911 70.5C300.711 72.5667 301.844 74.4 303.311 76C304.778 77.5333 306.511 78.7667 308.511 79.7C310.578 80.5667 312.878 81 315.411 81C317.944 81 320.211 80.5667 322.211 79.7C324.278 78.7667 326.044 77.5333 327.511 76C328.978 74.4 330.078 72.5667 330.811 70.5C331.611 68.3667 332.011 66.0667 332.011 63.6ZM353.041 40.2H360.841V87H353.041V40.2ZM351.241 21.9C351.241 20.3667 351.775 19.0333 352.841 17.9C353.975 16.7667 355.341 16.2 356.941 16.2C358.541 16.2 359.875 16.7667 360.941 17.9C362.075 19.0333 362.641 20.3667 362.641 21.9C362.641 23.5667 362.108 24.9333 361.041 26C359.975 27.0667 358.608 27.6 356.941 27.6C355.275 27.6 353.908 27.0667 352.841 26C351.775 24.9333 351.241 23.5667 351.241 21.9ZM407.665 51.9C405.998 49.9 404.198 48.4667 402.265 47.6C400.332 46.6667 398.198 46.2 395.865 46.2C393.265 46.2 390.965 46.6667 388.965 47.6C386.965 48.4667 385.298 49.7 383.965 51.3C382.698 52.9 381.732 54.7667 381.065 56.9C380.398 58.9667 380.065 61.2 380.065 63.6C380.065 66 380.432 68.2667 381.165 70.4C381.965 72.4667 383.032 74.3 384.365 75.9C385.765 77.5 387.432 78.7667 389.365 79.7C391.298 80.5667 393.465 81 395.865 81C400.998 81 404.965 79.0667 407.765 75.2L413.565 80.7C411.298 83.3 408.632 85.2 405.565 86.4C402.498 87.6 399.265 88.2 395.865 88.2C392.265 88.2 388.965 87.6 385.965 86.4C382.965 85.2 380.398 83.5 378.265 81.3C376.198 79.1 374.565 76.5 373.365 73.5C372.232 70.5 371.665 67.2 371.665 63.6C371.665 60.0667 372.232 56.8 373.365 53.8C374.565 50.8 376.232 48.2 378.365 46C380.498 43.8 383.032 42.1 385.965 40.9C388.965 39.6333 392.265 39 395.865 39C399.332 39 402.598 39.6 405.665 40.8C408.798 42 411.532 43.8667 413.865 46.4L407.665 51.9ZM421.607 74.7C423.14 76.6333 424.807 78.1667 426.607 79.3C428.474 80.4333 430.807 81 433.607 81C434.807 81 436.007 80.8667 437.207 80.6C438.474 80.3333 439.607 79.9 440.607 79.3C441.607 78.7 442.407 77.9667 443.007 77.1C443.607 76.1667 443.907 75.0667 443.907 73.8C443.907 72.5333 443.607 71.5 443.007 70.7C442.474 69.9 441.74 69.2333 440.807 68.7C439.874 68.1 438.807 67.6333 437.607 67.3C436.407 66.9667 435.174 66.6667 433.907 66.4C431.707 65.9333 429.607 65.4 427.607 64.8C425.607 64.2 423.84 63.4333 422.307 62.5C420.84 61.5 419.64 60.2333 418.707 58.7C417.84 57.1667 417.407 55.2 417.407 52.8C417.407 50.5333 417.907 48.5333 418.907 46.8C419.907 45.0667 421.24 43.6333 422.907 42.5C424.574 41.3667 426.44 40.5 428.507 39.9C430.574 39.3 432.707 39 434.907 39C438.24 39 441.307 39.6667 444.107 41C446.974 42.3333 449.207 44.5 450.807 47.5L444.307 51.8C443.307 50.1333 441.974 48.8 440.307 47.8C438.707 46.7333 436.74 46.2 434.407 46.2C433.34 46.2 432.24 46.3333 431.107 46.6C430.04 46.8667 429.074 47.2667 428.207 47.8C427.34 48.3333 426.607 49.0333 426.007 49.9C425.474 50.7 425.207 51.6333 425.207 52.7C425.207 53.7 425.507 54.5667 426.107 55.3C426.774 55.9667 427.64 56.5667 428.707 57.1C429.84 57.6333 431.107 58.1 432.507 58.5C433.974 58.9 435.474 59.2333 437.007 59.5C439.074 59.9 441.04 60.4333 442.907 61.1C444.774 61.7 446.407 62.5333 447.807 63.6C449.207 64.6667 450.307 66 451.107 67.6C451.907 69.2 452.307 71.1667 452.307 73.5C452.307 76.1667 451.774 78.4333 450.707 80.3C449.64 82.1667 448.207 83.7 446.407 84.9C444.674 86.0333 442.674 86.8667 440.407 87.4C438.207 87.9333 435.94 88.2 433.607 88.2C429.607 88.2 426.14 87.6 423.207 86.4C420.34 85.1333 417.74 82.8333 415.407 79.5L421.607 74.7ZM462.185 74.7C463.718 76.6333 465.385 78.1667 467.185 79.3C469.052 80.4333 471.385 81 474.185 81C475.385 81 476.585 80.8667 477.785 80.6C479.052 80.3333 480.185 79.9 481.185 79.3C482.185 78.7 482.985 77.9667 483.585 77.1C484.185 76.1667 484.485 75.0667 484.485 73.8C484.485 72.5333 484.185 71.5 483.585 70.7C483.052 69.9 482.318 69.2333 481.385 68.7C480.452 68.1 479.385 67.6333 478.185 67.3C476.985 66.9667 475.752 66.6667 474.485 66.4C472.285 65.9333 470.185 65.4 468.185 64.8C466.185 64.2 464.418 63.4333 462.885 62.5C461.418 61.5 460.218 60.2333 459.285 58.7C458.418 57.1667 457.985 55.2 457.985 52.8C457.985 50.5333 458.485 48.5333 459.485 46.8C460.485 45.0667 461.818 43.6333 463.485 42.5C465.152 41.3667 467.018 40.5 469.085 39.9C471.152 39.3 473.285 39 475.485 39C478.818 39 481.885 39.6667 484.685 41C487.552 42.3333 489.785 44.5 491.385 47.5L484.885 51.8C483.885 50.1333 482.552 48.8 480.885 47.8C479.285 46.7333 477.318 46.2 474.985 46.2C473.918 46.2 472.818 46.3333 471.685 46.6C470.618 46.8667 469.652 47.2667 468.785 47.8C467.918 48.3333 467.185 49.0333 466.585 49.9C466.052 50.7 465.785 51.6333 465.785 52.7C465.785 53.7 466.085 54.5667 466.685 55.3C467.352 55.9667 468.218 56.5667 469.285 57.1C470.418 57.6333 471.685 58.1 473.085 58.5C474.552 58.9 476.052 59.2333 477.585 59.5C479.652 59.9 481.618 60.4333 483.485 61.1C485.352 61.7 486.985 62.5333 488.385 63.6C489.785 64.6667 490.885 66 491.685 67.6C492.485 69.2 492.885 71.1667 492.885 73.5C492.885 76.1667 492.352 78.4333 491.285 80.3C490.218 82.1667 488.785 83.7 486.985 84.9C485.252 86.0333 483.252 86.8667 480.985 87.4C478.785 87.9333 476.518 88.2 474.185 88.2C470.185 88.2 466.718 87.6 463.785 86.4C460.918 85.1333 458.318 82.8333 455.985 79.5L462.185 74.7Z" fill="#37434A"/>
<defs>
<linearGradient id="paint0_linear" x1="22" y1="16.5" x2="80" y2="108" gradientUnits="userSpaceOnUse">
<stop offset="0.078225" stop-color="#54C8F1"/>
<stop offset="0.572917" stop-color="#41A2EF"/>
<stop offset="1" stop-color="#3386EE"/>
</linearGradient>
<linearGradient id="paint1_linear" x1="22" y1="16.5" x2="80" y2="108" gradientUnits="userSpaceOnUse">
<stop offset="0.078225" stop-color="#54C8F1"/>
<stop offset="0.572917" stop-color="#41A2EF"/>
<stop offset="1" stop-color="#3386EE"/>
</linearGradient>
<linearGradient id="paint2_linear" x1="22" y1="16.5" x2="80" y2="108" gradientUnits="userSpaceOnUse">
<stop offset="0.078225" stop-color="#54C8F1"/>
<stop offset="0.572917" stop-color="#41A2EF"/>
<stop offset="1" stop-color="#3386EE"/>
</linearGradient>
<linearGradient id="paint3_linear" x1="22" y1="16.5" x2="80" y2="108" gradientUnits="userSpaceOnUse">
<stop offset="0.078225" stop-color="#54C8F1"/>
<stop offset="0.572917" stop-color="#41A2EF"/>
<stop offset="1" stop-color="#3386EE"/>
</linearGradient>
</defs>
</svg>
